<?xml version="1.0" standalone="no"?>
<!DOCTYPE svg PUBLIC "-//W3C//DTD SVG 20010904//EN"
 "http://www.w3.org/TR/2001/REC-SVG-20010904/DTD/svg10.dtd">
<svg version="1.0" xmlns="http://www.w3.org/2000/svg"
 width="1080.000000pt" height="1350.000000pt" viewBox="0 0 1080.000000 1350.000000"
 preserveAspectRatio="xMidYMid meet">

<g transform="translate(0.000000,1350.000000) scale(0.100000,-0.100000)"
fill="#000000" stroke="none">
<path d="M0 6750 l0 -6750 5400 0 5400 0 0 6750 0 6750 -5400 0 -5400 0 0
-6750z m4036 5669 c139 -26 246 -114 284 -236 11 -36 20 -80 20 -99 l0 -34
-120 0 -119 0 -7 38 c-10 58 -34 102 -65 117 -61 32 -160 8 -189 -44 -17 -32
-14 -105 5 -138 23 -39 66 -67 176 -114 162 -70 247 -139 292 -237 17 -38 21
-66 22 -152 0 -92 -3 -111 -25 -153 -29 -58 -96 -122 -154 -148 -24 -10 -77
-24 -119 -30 -243 -36 -461 112 -483 329 l-7 62 127 0 126 0 0 -43 c0 -53 28
-107 69 -131 37 -21 134 -26 169 -7 54 29 71 150 30 211 -25 34 -53 51 -218
129 -127 59 -197 118 -237 199 -25 50 -28 68 -28 152 0 81 4 102 25 143 47 93
145 162 260 183 85 16 96 16 166 3z m4909 -20 c131 -49 210 -150 230 -297 l7
-52 -126 0 c-122 0 -126 1 -126 21 0 43 -24 101 -53 125 -35 30 -113 33 -158
7 -54 -32 -75 -114 -44 -173 22 -42 69 -74 183 -124 132 -57 195 -98 242 -158
51 -64 73 -133 73 -233 0 -67 -5 -91 -28 -144 -46 -102 -117 -151 -257 -179
-68 -13 -91 -14 -157 -3 -196 33 -321 155 -346 339 l-7 52 124 0 123 0 12 -61
c12 -64 30 -92 76 -116 36 -18 116 -20 155 -4 42 18 67 82 58 146 -10 62 -49
105 -133 142 -37 17 -93 42 -123 55 -85 38 -171 109 -207 170 -85 144 -56 331
67 428 108 86 279 110 415 59z m-6803 -18 c153 -60 233 -187 233 -371 -1 -111
-13 -160 -58 -226 -74 -110 -169 -152 -364 -161 l-133 -6 0 -209 0 -208 -125
0 -125 0 0 606 0 606 258 -4 c236 -4 262 -6 314 -27z m942 12 c10 -34 347
-1108 361 -1150 l14 -43 -133 0 -132 0 -23 88 c-12 48 -27 104 -32 125 l-10
37 -164 0 -164 0 -10 -37 c-5 -21 -20 -77 -32 -125 l-23 -88 -128 0 c-70 0
-128 4 -128 9 0 5 83 275 185 601 102 326 185 594 185 596 0 2 51 4 114 4 101
0 115 -2 120 -17z m2216 -88 l0 -105 -150 0 -150 0 0 -500 0 -500 -125 0 -125
0 0 500 0 500 -145 0 -145 0 0 105 0 105 420 0 420 0 0 -105z m391 -342 c0
-313 4 -460 12 -487 19 -61 54 -81 142 -81 64 0 77 3 99 24 14 14 30 41 36 60
6 21 10 218 10 484 l0 447 125 0 125 0 0 -432 c0 -250 -5 -460 -10 -497 -35
-210 -209 -324 -451 -294 -189 24 -297 119 -328 288 -7 37 -11 223 -11 497 l0
438 125 0 125 0 1 -447z m1239 437 c120 -27 195 -81 242 -177 28 -57 33 -79
36 -158 5 -112 -13 -187 -65 -262 -19 -29 -38 -53 -42 -53 -3 -1 -19 -11 -34
-24 l-29 -23 106 -248 c58 -136 106 -249 106 -251 0 -2 -60 -4 -134 -4 l-133
0 -89 218 -90 217 -62 3 -62 3 0 -221 0 -220 -120 0 -120 0 0 605 0 605 223 0
c122 0 242 -5 267 -10z m1172 -590 c103 -327 188 -598 188 -602 0 -5 -58 -8
-130 -8 l-129 0 -15 53 c-8 28 -23 84 -33 122 l-18 70 -165 0 -165 0 -21 -80
c-12 -44 -27 -99 -33 -122 l-12 -43 -130 0 c-101 0 -130 3 -126 13 2 6 86 275
187 597 100 322 184 589 187 593 3 4 55 6 116 5 l111 -3 188 -595z m507 -680
c-49 -56 -55 -60 -96 -60 -42 0 -43 1 -32 23 7 12 23 39 37 60 24 36 26 37 84
37 l59 0 -52 -60z m-6874 -102 c81 -43 115 -116 115 -247 0 -140 -30 -208
-110 -248 -37 -19 -60 -23 -142 -23 l-98 0 0 271 0 272 103 -5 c65 -3 113 -10
132 -20z m550 -28 l0 -45 -97 -3 -98 -3 0 -59 0 -60 85 0 85 0 0 -45 0 -45
-85 0 -85 0 0 -70 0 -70 100 0 100 0 0 -45 0 -45 -155 0 -155 0 0 270 0 271
153 -3 152 -3 0 -45z m652 -219 c46 -146 83 -266 83 -268 0 -2 -27 -3 -59 -3
l-60 0 -12 55 -12 55 -73 0 -73 0 -11 -42 c-6 -24 -13 -49 -15 -55 -5 -16
-115 -18 -115 -2 0 5 36 125 80 265 44 140 80 257 80 260 0 3 23 4 52 2 l51
-3 84 -264z m293 44 l0 -225 95 0 95 0 0 -45 0 -45 -150 0 -150 0 0 270 0 270
55 0 55 0 0 -225z m650 175 l0 -50 -65 0 -65 0 0 -220 0 -220 -55 0 -55 0 0
220 0 220 -65 0 -65 0 0 50 0 50 185 0 185 0 0 -50z m427 -219 c46 -146 83
-266 83 -268 0 -2 -27 -3 -59 -3 l-60 0 -12 55 -12 55 -73 0 -73 0 -11 -42
c-6 -24 -13 -49 -15 -55 -5 -16 -115 -18 -115 -2 0 5 36 125 80 265 44 140 80
257 80 260 0 3 23 4 52 2 l51 -3 84 -264z m685 241 c69 -43 99 -159 62 -239
-28 -57 -77 -83 -156 -83 l-68 0 0 -95 0 -95 -60 0 -60 0 0 263 c0 145 3 267
8 271 4 5 59 6 123 4 97 -3 121 -7 151 -26z m433 17 c22 -6 51 -21 64 -32 68
-62 67 -199 -1 -253 l-25 -20 47 -112 48 -112 -62 0 -61 0 -39 95 c-33 83 -41
95 -62 95 -24 0 -24 -2 -24 -95 l0 -95 -60 0 -60 0 0 263 c0 145 3 267 7 270
10 11 185 8 228 -4z m498 -3 c87 -37 122 -124 115 -284 -4 -91 -8 -115 -29
-152 -82 -149 -306 -121 -348 43 -16 64 -14 214 4 273 15 52 61 105 105 123
37 14 116 13 153 -3z m484 -14 c59 -31 92 -84 104 -168 17 -124 -3 -224 -58
-285 -43 -48 -81 -59 -200 -59 l-93 0 0 263 c0 145 3 267 8 271 4 5 50 6 102
4 73 -3 105 -9 137 -26z m343 -180 c0 -236 2 -244 65 -244 63 0 65 8 65 244
l0 208 55 0 55 0 0 -210 c0 -225 -5 -255 -51 -296 -87 -77 -242 -48 -285 53
-10 24 -14 87 -14 243 l0 210 55 0 55 0 0 -208z m633 197 c44 -23 78 -64 92
-113 8 -27 15 -53 15 -58 0 -4 -25 -8 -55 -8 l-54 0 -7 35 c-9 47 -28 65 -70
65 -48 0 -71 -27 -80 -96 -8 -71 0 -204 16 -233 15 -28 51 -42 87 -32 22 6 31
17 41 49 l14 42 55 0 55 0 -7 -32 c-24 -115 -104 -171 -221 -153 -36 5 -55 16
-89 49 -50 51 -65 102 -65 230 0 132 34 216 102 249 38 19 139 22 171 6z m480
0 c44 -23 78 -64 92 -113 8 -27 15 -53 15 -58 0 -4 -25 -8 -55 -8 l-54 0 -7
35 c-9 47 -28 65 -70 65 -48 0 -71 -27 -80 -96 -8 -71 0 -204 16 -233 15 -28
51 -42 87 -32 22 6 31 17 41 49 l14 42 55 0 55 0 -7 -32 c-24 -115 -104 -171
-221 -153 -36 5 -55 16 -89 49 -50 51 -65 102 -65 230 0 132 34 216 102 249
38 19 139 22 171 6z m335 -261 l2 -268 -55 0 -55 0 0 271 0 270 53 -3 52 -3 3
-267z m405 258 c40 -16 81 -63 99 -113 8 -24 13 -82 13 -153 -1 -100 -4 -121
-24 -163 -56 -116 -210 -141 -302 -48 -47 46 -59 91 -59 216 0 149 27 218 100
256 41 23 126 25 173 5z m426 -159 l76 -169 3 171 2 171 55 0 55 0 0 -270 0
-271 -57 3 -58 3 -75 167 -75 166 -3 -169 -2 -169 -55 0 -55 0 0 270 0 271 57
-3 56 -3 76 -168z m-7060 -1178 c-24 -34 -38 -42 -68 -37 l-20 3 20 33 c17 26
27 32 56 32 l34 0 -22 -31z m286 -63 c36 -15 55 -42 55 -75 0 -33 -57 -29 -70
4 -11 29 -45 34 -58 8 -14 -28 -4 -42 49 -68 58 -30 81 -61 81 -110 0 -45 -23
-72 -73 -85 -66 -18 -139 28 -139 87 0 19 5 23 29 23 23 0 33 -7 43 -27 9 -20
21 -28 38 -28 21 0 26 5 28 32 3 30 0 34 -53 59 -44 20 -60 34 -71 60 -24 57
0 105 62 124 40 12 41 12 79 -4z m711 -13 c33 -21 49 -70 49 -148 0 -116 -37
-168 -120 -168 -50 0 -89 24 -106 66 -19 45 -17 174 3 212 32 61 113 78 174
38z m2914 -2 c33 -24 49 -72 49 -151 1 -83 -20 -128 -72 -154 -33 -16 -45 -17
-76 -7 -20 6 -48 22 -62 37 -22 24 -24 33 -24 129 0 101 1 105 29 134 43 45
105 50 156 12z m3475 -12 c29 -28 30 -34 33 -128 4 -98 4 -98 -27 -134 -60
-68 -155 -55 -191 25 -26 57 -26 149 0 206 35 76 124 91 185 31z m-7825 -76
c14 -56 28 -104 31 -108 4 -3 9 9 13 27 3 18 16 68 27 111 l21 77 44 0 44 0 0
-165 0 -165 -37 0 -36 0 6 101 c4 56 5 100 3 98 -2 -2 -16 -48 -31 -102 -27
-93 -29 -98 -54 -95 -22 3 -28 13 -52 93 l-28 90 0 -92 -1 -93 -35 0 -35 0 0
166 0 165 47 -3 47 -3 26 -102z m457 -33 c63 -199 62 -190 19 -190 -32 0 -36
4 -44 33 -8 30 -11 32 -52 32 -41 0 -45 -2 -54 -32 -8 -30 -13 -33 -46 -33
l-37 0 51 165 51 166 34 -3 35 -3 43 -135z m723 110 c0 -30 -1 -30 -55 -30
l-55 0 0 -40 0 -40 50 0 c49 0 50 -1 50 -30 0 -29 -1 -30 -50 -30 l-50 0 0
-65 0 -65 -35 0 -35 0 0 165 0 165 90 0 90 0 0 -30z m565 7 c39 -33 44 -91 12
-138 l-24 -36 28 -67 28 -66 -39 0 c-38 0 -39 1 -62 60 -16 42 -28 60 -40 60
-15 0 -18 -9 -18 -60 l0 -60 -35 0 -35 0 0 165 0 165 79 0 c68 0 84 -3 106
-23z m290 0 c39 -33 44 -91 12 -138 l-24 -36 28 -67 28 -66 -39 0 c-38 0 -39
1 -62 60 -16 42 -28 60 -40 60 -15 0 -18 -9 -18 -60 l0 -60 -35 0 -35 0 0 165
0 165 79 0 c68 0 84 -3 106 -23z m305 -136 c27 -87 50 -161 50 -165 0 -4 -17
-6 -37 -4 -32 3 -38 7 -45 36 -8 30 -11 32 -53 32 -42 0 -44 -1 -51 -35 -6
-33 -9 -35 -45 -35 l-38 0 13 43 c7 23 30 97 51 165 l38 122 33 0 33 0 51
-159z m290 25 c0 -121 -2 -136 -21 -160 -30 -38 -64 -49 -105 -36 -39 13 -64
44 -64 77 0 20 5 23 35 23 28 0 35 -4 35 -19 0 -26 17 -36 35 -21 12 10 15 41
15 141 l0 129 35 0 35 0 0 -134z m278 107 c-3 -27 -6 -28 -65 -31 l-63 -3 0
-34 0 -35 55 0 c54 0 55 0 55 -30 0 -30 -1 -30 -55 -30 l-55 0 0 -40 0 -39 63
-3 c59 -3 62 -4 65 -30 l3 -28 -100 0 -101 0 0 165 0 165 101 0 100 0 -3 -27z
m451 -10 c6 -21 17 -68 27 -105 9 -38 20 -68 23 -68 4 0 13 23 20 52 6 28 18
75 27 105 l15 53 45 0 44 0 0 -165 0 -165 -35 0 -35 0 -1 93 -1 92 -26 -92
c-25 -87 -28 -93 -53 -93 -24 0 -27 6 -54 100 -15 55 -29 100 -30 100 -2 0 -1
-45 2 -100 l6 -100 -37 0 -36 0 0 165 0 165 45 0 c43 0 45 -1 54 -37z m479 10
c-3 -27 -6 -28 -65 -31 l-63 -3 0 -34 0 -35 55 0 c54 0 55 0 55 -30 0 -30 -1
-30 -55 -30 l-55 0 0 -40 0 -39 63 -3 c59 -3 62 -4 65 -30 l3 -28 -100 0 -101
0 0 165 0 165 101 0 100 0 -3 -27z m242 -107 c0 -121 -2 -136 -21 -160 -30
-38 -64 -49 -105 -36 -39 13 -64 44 -64 77 0 20 5 23 35 23 28 0 35 -4 35 -19
0 -26 17 -36 35 -21 12 10 15 41 15 141 l0 129 35 0 35 0 0 -134z m581 105
c38 -38 40 -97 5 -137 l-23 -28 28 -64 c16 -35 29 -66 29 -68 0 -2 -17 -4 -39
-4 -38 0 -39 1 -61 60 -13 33 -29 60 -36 60 -10 0 -14 -16 -14 -60 l0 -60 -35
0 -35 0 0 165 0 165 76 0 c70 0 78 -2 105 -29z m430 0 c38 -38 40 -97 5 -137
l-23 -28 28 -64 c16 -35 29 -66 29 -68 0 -2 -17 -4 -39 -4 -38 0 -39 1 -61 60
-13 33 -29 60 -36 60 -10 0 -14 -16 -14 -60 l0 -60 -35 0 -35 0 0 165 0 165
76 0 c70 0 78 -2 105 -29z m297 2 c-3 -27 -6 -28 -65 -31 l-63 -3 0 -34 0 -35
55 0 c54 0 55 0 55 -30 0 -30 -1 -30 -55 -30 l-55 0 0 -40 0 -39 63 -3 c59 -3
62 -4 65 -30 l3 -28 -100 0 -101 0 0 165 0 165 101 0 100 0 -3 -27z m185 -75
l46 -103 1 103 0 102 35 0 35 0 0 -166 0 -165 -36 3 c-36 3 -38 5 -78 96 l-41
93 -3 -96 -3 -95 -39 0 -39 0 0 165 1 165 37 0 38 0 46 -102z m362 80 c15 -12
34 -36 41 -54 18 -43 18 -135 0 -177 -24 -56 -50 -71 -132 -75 l-74 -4 0 166
0 166 69 0 c55 0 74 -4 96 -22z m205 -143 l0 -165 -35 0 -35 0 0 165 0 165 35
0 35 0 0 -165z m199 68 c13 -54 27 -104 31 -111 4 -8 19 33 35 97 l29 111 48
0 48 0 0 -165 0 -165 -35 0 -35 0 -1 98 c-1 95 -1 96 -14 57 -8 -22 -21 -66
-30 -97 -14 -50 -20 -58 -40 -58 -22 0 -27 9 -50 88 -15 48 -28 92 -30 97 -2
6 -4 -34 -4 -87 l-1 -98 -35 0 -35 0 0 165 0 165 48 0 48 0 23 -97z m341 -68
l0 -165 -35 0 -35 0 0 165 0 165 35 0 35 0 0 -165z m280 135 l0 -30 -60 0 -60
0 0 -35 0 -35 50 0 c49 0 50 -1 50 -30 0 -29 -1 -30 -50 -30 l-50 0 0 -40 0
-40 60 0 60 0 0 -30 0 -30 -100 0 -100 0 0 165 0 165 100 0 100 0 0 -30z m183
-72 l46 -103 1 103 0 102 35 0 35 0 0 -166 0 -165 -36 3 c-36 3 -38 5 -78 96
l-41 93 -3 -96 -3 -95 -39 0 -39 0 0 165 1 165 37 0 38 0 46 -102z m417 72 c0
-28 -2 -30 -40 -30 l-40 0 0 -135 0 -135 -35 0 -35 0 0 135 0 135 -40 0 c-38
0 -40 2 -40 30 l0 30 115 0 115 0 0 -30z m-4527 -288 c-2 -52 -27 -95 -51 -90
-18 4 -18 8 -6 91 6 45 9 48 33 45 24 -3 26 -6 24 -46z m-388 -312 c5 -9 -50
-50 -67 -50 -18 0 -6 20 25 39 38 24 34 23 42 11z m1305 -125 c0 -104 -2 -125
-15 -125 -13 0 -15 21 -15 125 0 104 2 125 15 125 13 0 15 -21 15 -125z m1150
0 c0 -118 -1 -125 -20 -125 -11 0 -20 5 -20 12 0 9 -3 9 -12 0 -19 -19 -82
-15 -105 8 -77 71 -4 202 87 156 l30 -14 0 37 c0 40 6 51 27 51 10 0 13 -28
13 -125z m1230 0 c0 -118 -1 -125 -20 -125 -11 0 -20 5 -20 12 0 9 -3 9 -12 0
-19 -19 -82 -15 -105 8 -77 71 -4 202 87 156 l30 -14 0 37 c0 40 6 51 27 51
10 0 13 -28 13 -125z m-5388 105 c33 -10 68 -41 68 -62 0 -15 -24 -8 -46 13
-30 28 -89 28 -118 0 -31 -31 -30 -106 3 -132 31 -25 85 -25 111 1 21 21 50
27 50 11 0 -5 -14 -21 -31 -35 -47 -40 -110 -37 -155 8 -28 28 -34 42 -34 76
0 54 25 96 69 114 44 18 38 18 83 6z m4818 -25 c0 -20 5 -25 25 -25 14 0 25
-4 25 -10 0 -5 -11 -10 -25 -10 -24 0 -25 -2 -25 -65 0 -63 1 -65 25 -65 16 0
25 -6 25 -15 0 -18 -50 -21 -68 -3 -7 7 -12 40 -12 80 0 54 -3 68 -15 68 -8 0
-15 5 -15 10 0 6 7 10 15 10 9 0 15 9 15 25 0 16 6 25 15 25 9 0 15 -9 15 -25z
m-4512 -51 c31 -35 30 -93 -3 -128 -35 -37 -105 -37 -134 0 -39 49 -21 132 33
154 32 14 79 3 104 -26z m219 26 c39 -14 53 -46 53 -120 0 -44 -4 -60 -14 -60
-9 0 -15 20 -19 66 -6 80 -23 103 -64 88 -27 -9 -28 -13 -31 -82 -3 -64 -5
-72 -22 -72 -18 0 -20 7 -20 90 l0 89 35 -1 c19 -1 38 2 42 5 8 9 4 9 40 -3z
m256 -18 c23 -20 22 -32 -3 -32 -11 0 -20 4 -20 9 0 16 -40 23 -56 10 -18 -15
-4 -34 34 -44 85 -21 80 -105 -7 -105 -25 0 -44 7 -56 20 -25 28 -10 38 25 17
23 -14 34 -16 50 -7 30 16 20 33 -26 48 -52 17 -68 34 -60 65 11 44 78 55 119
19z m245 -8 c12 -14 22 -36 22 -50 0 -23 -2 -24 -70 -24 -53 0 -70 -3 -70 -14
0 -36 73 -53 95 -22 14 19 35 21 35 4 0 -26 -34 -48 -72 -48 -51 0 -72 12 -88
49 -22 54 1 115 50 134 28 11 75 -3 98 -29z m215 22 c15 -8 27 -11 27 -5 0 5
9 9 20 9 19 0 20 -7 20 -104 0 -98 -2 -106 -26 -135 -35 -42 -92 -44 -132 -4
-23 24 -25 28 -10 31 10 2 25 -4 34 -12 18 -19 65 -21 82 -4 7 7 12 26 12 42
0 23 -3 27 -12 18 -15 -15 -78 -15 -99 1 -55 42 -49 134 11 164 32 16 39 16
73 -1z m810 -13 c9 -9 17 -12 17 -6 0 16 50 34 74 27 46 -14 56 -33 56 -111 0
-58 -3 -73 -15 -73 -12 0 -15 14 -15 64 0 90 -34 122 -80 76 -16 -16 -20 -33
-20 -80 0 -47 -3 -60 -15 -60 -12 0 -15 14 -15 63 0 52 -4 67 -21 83 -19 17
-23 17 -47 3 -25 -13 -27 -21 -30 -82 -2 -51 -6 -67 -17 -67 -12 0 -15 18 -15
90 0 73 3 90 15 90 8 0 15 -5 15 -11 0 -5 10 -3 23 6 25 18 62 13 90 -12z
m385 -9 c12 -14 22 -36 22 -50 0 -23 -2 -24 -70 -24 -53 0 -70 -3 -70 -14 0
-36 73 -53 95 -22 14 19 35 21 35 4 0 -26 -34 -48 -72 -48 -51 0 -72 12 -88
49 -22 54 1 115 50 134 28 11 75 -3 98 -29z m417 22 c22 -6 50 -44 40 -54 -3
-4 -14 -1 -23 6 -45 32 -60 35 -87 18 -20 -13 -25 -25 -25 -55 0 -22 6 -44 15
-51 22 -18 66 -15 81 5 7 9 20 15 29 13 15 -3 14 -6 -5 -30 -17 -23 -30 -28
-64 -28 -69 0 -108 58 -86 126 12 37 58 67 90 59 8 -2 24 -6 35 -9z m358 0
c15 -8 27 -11 27 -5 0 5 9 9 20 9 19 0 20 -7 20 -90 0 -83 -1 -90 -20 -90 -11
0 -20 5 -20 12 0 9 -3 9 -12 0 -14 -14 -72 -16 -97 -2 -43 23 -52 119 -13 152
34 30 57 33 95 14z m247 4 c11 0 40 -29 40 -41 0 -15 -26 -10 -40 6 -18 21
-55 15 -55 -9 0 -13 14 -23 45 -35 37 -13 46 -21 48 -44 5 -40 -14 -57 -61
-57 -38 0 -77 21 -77 42 0 13 30 9 46 -7 19 -18 25 -19 49 -2 24 19 12 34 -36
47 -47 13 -71 49 -48 76 17 20 50 34 67 28 8 -2 17 -4 22 -4z m370 -5 c17 -9
30 -11 30 -5 0 5 7 10 15 10 12 0 15 -17 15 -90 0 -73 -3 -90 -15 -90 -8 0
-15 7 -15 17 0 15 -1 15 -18 0 -43 -39 -118 -11 -137 51 -10 34 13 90 43 107
35 18 47 18 82 0z m533 1 c15 -8 27 -11 27 -5 0 5 9 9 20 9 19 0 20 -7 20 -90
0 -83 -1 -90 -20 -90 -11 0 -20 5 -20 10 0 7 -6 7 -19 0 -34 -18 -80 -12 -106
15 -44 43 -27 132 29 155 30 12 37 12 69 -4z m315 -18 c32 -31 31 -100 -3
-133 -26 -27 -72 -33 -106 -15 -18 10 -19 7 -19 -45 0 -42 -3 -55 -15 -55 -13
0 -15 22 -15 135 0 113 2 135 15 135 8 0 15 -4 15 -9 0 -6 12 -3 28 5 32 17
68 11 100 -18z m385 18 c15 -8 27 -11 27 -5 0 5 7 9 15 9 12 0 15 -17 15 -90
0 -73 -3 -90 -15 -90 -8 0 -15 5 -15 10 0 7 -6 7 -19 0 -34 -18 -80 -12 -106
15 -34 33 -35 102 -2 132 38 35 60 39 100 19z m530 0 c15 -8 27 -11 27 -5 0 5
9 9 20 9 19 0 20 -7 20 -90 0 -83 -1 -90 -20 -90 -11 0 -20 5 -20 10 0 7 -6 7
-19 0 -34 -18 -80 -12 -106 15 -44 43 -27 132 29 155 30 12 37 12 69 -4z m270
-14 c23 -20 22 -32 -3 -32 -11 0 -20 4 -20 9 0 16 -40 23 -56 10 -18 -15 -4
-34 34 -44 85 -21 80 -105 -7 -105 -25 0 -44 7 -56 20 -25 28 -10 38 25 17 23
-14 34 -16 50 -7 30 16 20 33 -26 48 -52 17 -68 34 -60 65 11 44 78 55 119 19z
m-4433 -40 c0 -59 11 -84 43 -95 33 -12 57 26 57 93 0 47 3 60 15 60 12 0 15
-17 15 -90 0 -73 -3 -90 -15 -90 -8 0 -15 5 -15 12 0 9 -3 9 -12 0 -21 -21
-85 -15 -102 10 -22 31 -23 158 -1 158 12 0 15 -13 15 -58z m260 -32 c0 -83
-1 -90 -20 -90 -19 0 -20 7 -20 90 0 83 1 90 20 90 19 0 20 -7 20 -90z m966
75 c-3 -9 -24 -42 -46 -75 l-40 -59 42 -3 c23 -2 43 -9 46 -15 3 -10 -14 -13
-62 -13 -46 0 -66 4 -66 13 0 6 18 39 40 72 22 33 40 63 40 68 0 4 -18 7 -40
7 -22 0 -40 5 -40 10 0 6 29 10 66 10 55 0 65 -3 60 -15z m-1686 -500 c0 -118
-1 -125 -20 -125 -11 0 -20 5 -20 12 0 9 -3 9 -12 0 -19 -19 -82 -15 -105 8
-77 71 -4 202 87 156 l30 -14 0 37 c0 40 6 51 27 51 10 0 13 -27 13 -125z
m1730 105 c0 -11 -6 -20 -14 -20 -18 0 -29 16 -21 30 11 18 35 11 35 -10z
m270 -105 c0 -118 -1 -125 -20 -125 -11 0 -20 5 -20 12 0 9 -3 9 -12 0 -7 -7
-29 -12 -50 -12 -53 0 -88 35 -88 88 0 73 61 118 121 88 l29 -14 0 44 c0 37 3
44 20 44 19 0 20 -7 20 -125z m530 0 c0 -104 -2 -125 -15 -125 -8 0 -15 7 -15
17 0 15 -1 15 -18 0 -10 -10 -34 -17 -54 -17 -93 0 -116 143 -29 180 28 11 37
11 67 -3 l34 -17 0 45 c0 33 4 45 15 45 13 0 15 -21 15 -125z m1090 0 c0 -118
-1 -125 -20 -125 -11 0 -20 5 -20 12 0 9 -3 9 -12 0 -7 -7 -29 -12 -50 -12
-53 0 -88 35 -88 88 0 73 61 118 121 88 l29 -14 0 44 c0 37 3 44 20 44 19 0
20 -7 20 -125z m788 108 c5 -18 -28 -29 -38 -12 -5 7 -6 17 -3 22 7 12 35 5
41 -10z m-166 -25 c2 -15 11 -24 26 -26 12 -2 22 -7 22 -12 0 -5 -10 -10 -22
-12 -21 -3 -23 -8 -23 -63 0 -55 2 -60 23 -63 30 -5 29 -32 -2 -32 -42 0 -56
25 -56 95 0 41 -4 65 -12 69 -10 5 -10 7 0 12 6 3 12 17 12 30 0 31 27 32 32
2z m-5219 -32 c15 -8 27 -11 27 -5 0 5 9 9 20 9 19 0 20 -7 20 -90 0 -83 -1
-90 -20 -90 -11 0 -20 5 -20 12 0 9 -3 9 -12 0 -14 -14 -72 -16 -97 -2 -43 23
-52 119 -13 152 34 30 57 33 95 14z m430 -14 c9 -8 17 -21 17 -29 0 -19 -24
-16 -45 7 -10 11 -26 20 -37 20 -26 0 -58 -36 -58 -65 0 -56 68 -89 101 -49
13 16 39 19 39 4 0 -26 -41 -50 -84 -50 -36 0 -48 5 -65 26 -39 49 -21 132 33
154 27 11 76 2 99 -18z m217 13 c17 -9 30 -11 30 -5 0 5 7 10 15 10 12 0 15
-17 15 -90 0 -73 -3 -90 -15 -90 -8 0 -15 7 -15 17 0 15 -1 15 -18 0 -43 -39
-118 -11 -137 51 -10 34 13 90 43 107 35 18 47 18 82 0z m533 1 c15 -8 27 -11
27 -5 0 5 7 9 15 9 12 0 15 -17 15 -90 0 -73 -3 -90 -15 -90 -8 0 -15 5 -15
10 0 7 -6 7 -19 0 -34 -18 -80 -12 -106 15 -34 33 -35 102 -2 132 38 35 60 39
100 19z m430 -18 c23 -27 25 -158 2 -158 -12 0 -15 13 -15 58 0 63 -19 102
-50 102 -36 0 -50 -27 -50 -96 0 -57 -2 -64 -20 -64 -19 0 -20 7 -20 90 l0 89
35 -1 c19 -1 38 2 42 5 11 11 57 -4 76 -25z m249 4 c10 -9 20 -32 24 -50 l7
-32 -77 0 -76 0 11 -24 c16 -34 48 -40 81 -16 32 24 48 25 48 6 0 -42 -99 -61
-140 -28 -47 38 -34 139 23 162 29 13 78 4 99 -18z m251 0 c9 -8 17 -21 17
-29 0 -19 -24 -16 -45 7 -10 11 -26 20 -37 20 -26 0 -58 -36 -58 -65 0 -56 68
-89 101 -49 13 16 39 19 39 4 0 -26 -41 -50 -84 -50 -36 0 -48 5 -65 26 -39
49 -21 132 33 154 27 11 76 2 99 -18z m245 -8 c12 -14 22 -36 22 -50 0 -23 -2
-24 -70 -24 -53 0 -70 -3 -70 -14 0 -36 73 -53 95 -22 14 19 35 21 35 4 0 -26
-34 -48 -72 -48 -51 0 -72 12 -88 49 -22 54 1 115 50 134 28 11 75 -3 98 -29z
m220 13 c15 -12 16 -37 0 -37 -6 0 -19 7 -29 16 -21 19 -62 10 -57 -14 2 -8
22 -22 46 -30 53 -17 70 -44 47 -78 -21 -33 -85 -34 -117 -2 -20 20 -21 23 -5
26 9 2 24 -4 33 -13 14 -13 47 -13 63 1 12 11 -13 34 -51 46 -39 13 -43 17
-43 49 0 26 6 36 25 46 25 12 65 8 88 -10z m605 9 c15 -8 27 -11 27 -5 0 5 7
9 15 9 12 0 15 -17 15 -90 0 -73 -3 -90 -15 -90 -8 0 -15 5 -15 10 0 7 -6 7
-19 0 -34 -18 -80 -12 -106 15 -34 33 -35 102 -2 132 38 35 60 39 100 19z
m709 -13 c38 -35 30 -130 -13 -153 -25 -14 -86 -12 -96 3 -5 7 -10 -10 -13
-43 -4 -42 -9 -56 -22 -58 -16 -3 -18 8 -18 132 0 129 1 136 20 136 11 0 20
-4 20 -9 0 -6 12 -3 28 5 30 16 68 11 94 -13z m198 7 c0 -13 -7 -20 -20 -20
-27 0 -40 -30 -40 -94 0 -43 -3 -56 -15 -56 -12 0 -15 17 -15 90 0 73 3 90 15
90 8 0 15 -4 15 -9 0 -6 12 -3 28 5 34 17 32 18 32 -6z m223 -12 c57 -66 17
-158 -68 -158 -102 0 -126 141 -30 181 29 12 77 1 98 -23z m770 4 c19 -16 23
-42 7 -42 -5 0 -19 9 -30 20 -47 47 -98 10 -90 -65 5 -46 47 -63 84 -34 29 23
46 24 46 5 0 -36 -85 -60 -129 -36 -26 14 -44 64 -37 103 6 34 27 59 56 70 22
8 72 -3 93 -21z m730 14 c15 -8 27 -11 27 -5 0 5 9 9 20 9 19 0 20 -7 20 -90
0 -83 -1 -90 -20 -90 -11 0 -20 5 -20 12 0 9 -3 9 -12 0 -14 -14 -72 -16 -97
-2 -43 23 -52 119 -13 152 34 30 57 33 95 14z m-3103 -86 c0 -73 -3 -90 -15
-90 -12 0 -15 17 -15 90 0 73 3 90 15 90 12 0 15 -17 15 -90z m2010 26 c0 -55
3 -67 21 -80 45 -31 79 6 79 86 0 45 3 58 15 58 12 0 15 -17 15 -90 0 -73 -3
-90 -15 -90 -8 0 -15 5 -15 12 0 9 -3 9 -12 0 -7 -7 -28 -12 -48 -12 -54 0
-72 25 -78 110 -4 66 -4 70 17 70 19 0 21 -5 21 -64z m660 -26 c0 -73 -3 -90
-15 -90 -12 0 -15 17 -15 90 0 73 3 90 15 90 12 0 15 -17 15 -90z m130 28 c12
-35 25 -66 29 -70 4 -4 18 24 31 62 18 51 29 70 42 70 19 0 17 -4 -41 -152
-16 -43 -46 -36 -66 15 -59 146 -57 137 -36 137 13 0 24 -16 41 -62z m485 -98
c0 -8 -8 -16 -17 -18 -13 -2 -18 3 -18 18 0 15 5 20 18 18 9 -2 17 -10 17 -18z
m-1578 -166 c28 -8 40 -40 54 -149 6 -49 22 -141 35 -203 13 -62 22 -118 19
-123 -4 -5 -30 -9 -58 -9 -29 0 -88 -4 -132 -10 -44 -5 -141 -14 -215 -20 -74
-6 -184 -15 -245 -21 -60 -5 -159 -13 -220 -18 -60 -5 -186 -16 -280 -25 -303
-28 -398 -36 -530 -46 -71 -5 -146 -12 -165 -15 -20 -4 -90 -10 -155 -15 -185
-14 -477 -38 -610 -51 -234 -22 -332 -22 -456 0 -117 20 -220 35 -229 32 -10
-3 -15 76 -7 114 13 57 1 146 -28 219 -32 81 -33 122 -2 129 12 4 92 11 177
17 85 5 207 14 270 20 63 5 156 12 205 15 88 6 210 15 445 35 63 5 151 12 195
15 44 3 139 10 210 15 72 5 198 14 280 20 83 5 173 12 200 15 175 20 590 44
905 54 129 4 253 8 275 9 22 1 50 -1 62 -4z m-3216 -794 c5 0 9 5 9 10 0 6 5
10 10 10 6 0 10 -9 10 -20 0 -26 -29 -84 -37 -76 -4 3 -14 -6 -24 -20 -13 -21
-15 -31 -7 -44 6 -10 8 -26 3 -36 -17 -41 -16 -113 1 -139 9 -15 22 -50 29
-78 l11 -52 65 -22 c155 -53 408 -69 514 -33 32 11 73 20 92 20 18 0 33 3 33
8 0 4 64 8 143 10 78 2 143 6 145 10 11 30 20 35 36 19 18 -17 47 -13 43 6 -1
7 5 12 13 12 8 0 14 -6 13 -12 -2 -10 14 -13 60 -11 l62 1 -50 6 c-99 12 -7
26 185 28 267 2 504 13 514 24 6 5 63 9 127 9 99 0 118 3 123 16 6 14 19 16
104 10 70 -5 109 -3 142 7 27 9 99 15 183 16 75 1 147 5 160 10 12 5 74 9 136
10 63 1 122 6 132 11 10 6 73 10 141 10 72 0 128 4 134 10 6 6 62 13 125 15
63 3 133 8 155 11 41 5 42 4 61 -38 21 -44 63 -198 83 -303 20 -101 30 -228
40 -510 6 -148 14 -331 19 -405 10 -160 29 -558 39 -825 4 -104 6 -306 4 -447
-3 -257 -3 -258 -25 -262 -12 -3 -53 -10 -92 -17 -117 -19 -304 -59 -430 -91
-66 -16 -131 -32 -145 -35 -28 -6 -229 -66 -300 -90 -45 -15 -63 -22 -111 -41
-78 -31 -396 -132 -554 -177 -33 -9 -71 -20 -85 -25 -33 -11 -125 -32 -295
-70 -270 -59 -656 -105 -1100 -130 -99 -6 -185 -13 -192 -15 -15 -5 -305 22
-388 36 -33 5 -109 12 -170 15 -142 6 -154 9 -166 41 -6 17 -9 331 -8 882 1
471 1 881 0 911 -3 65 15 529 29 755 19 305 33 441 54 560 l22 120 35 0 c32 0
34 2 37 35 1 19 7 44 12 55 5 11 10 46 13 78 3 45 1 57 -10 53 -18 -7 -16 8 7
49 11 20 20 41 20 48 0 23 45 120 48 104 2 -10 8 -17 13 -17z m2084 -340 c-3
-5 -14 -10 -23 -9 -14 0 -13 2 3 9 27 11 27 11 20 0z m-257 -27 c-15 -2 -42
-2 -60 0 -18 2 -6 4 27 4 33 0 48 -2 33 -4z m-303 -14 c10 -14 1 -21 -19 -13
-9 3 -13 10 -10 15 7 12 21 11 29 -2z m1455 -4088 c0 -5 -7 -14 -15 -21 -12
-10 -18 -10 -30 0 -13 11 -13 15 -3 21 17 11 48 11 48 0z m-70 -31 c0 -20 -20
-35 -38 -28 -15 5 6 48 23 48 8 0 15 -9 15 -20z m-312 -18 c4 -28 42 -31 42
-3 0 16 7 19 44 19 36 -1 46 -5 50 -22 3 -11 3 -22 1 -24 -3 -3 -36 -5 -75 -4
-38 0 -73 -4 -76 -9 -3 -5 -18 -9 -34 -9 -24 0 -27 3 -23 23 13 53 65 75 71
29z m206 -13 c-11 -18 -24 -8 -24 19 1 26 1 26 15 8 8 -10 12 -23 9 -27z
m-294 1 c0 -5 -4 -10 -9 -10 -5 0 -11 -10 -13 -22 -3 -21 -5 -20 -20 10 l-16
32 29 0 c16 0 29 -4 29 -10z m-80 -26 c0 -8 -6 -14 -14 -14 -8 0 -17 -7 -20
-16 -4 -11 -10 -13 -22 -6 -11 6 -26 5 -43 -4 -33 -18 -52 -18 -77 0 -28 21
-6 43 26 26 21 -11 22 -10 17 10 -5 20 -3 22 26 17 18 -2 41 -1 52 3 26 9 55
1 55 -16z m-210 -18 c0 -7 -7 -19 -15 -26 -13 -11 -20 -11 -40 0 -14 7 -28 10
-32 5 -5 -4 -2 -10 5 -12 21 -8 13 -23 -13 -23 -14 0 -25 5 -25 10 0 14 -33
13 -48 -2 -9 -9 -15 -9 -24 0 -18 18 -30 14 -23 -8 7 -23 5 -24 -30 -8 -59 27
1 63 103 60 17 0 32 4 32 9 0 5 25 9 55 9 40 0 55 -4 55 -14z m-713 -122 c-3
-3 -12 -4 -19 -1 -8 3 -5 6 6 6 11 1 17 -2 13 -5z m-1420 -147 c-3 -21 -13
-47 -23 -58 -10 -11 -21 -39 -25 -62 -4 -27 -7 4 -8 91 -1 94 3 137 12 146 18
20 51 -66 44 -117z m209 113 c8 0 14 -9 14 -20 0 -35 -66 -54 -89 -26 -22 26
10 60 47 50 8 -2 20 -4 28 -4z m109 -104 c18 -13 18 -15 2 -40 -19 -29 -50
-33 -92 -14 -34 15 -32 32 8 52 40 19 58 20 82 2z m2985 -85 c0 -25 -14 -41
-36 -41 -28 0 -30 7 -7 32 17 19 43 24 43 9z m-123 -16 c6 -18 -25 -57 -39
-49 -6 4 -5 10 3 15 12 8 12 10 0 18 -7 5 -10 14 -7 20 10 16 36 13 43 -4z
m-71 -21 c-9 -8 -21 -12 -27 -8 -13 7 7 24 29 24 10 0 10 -4 -2 -16z m-84 -19
c-5 -30 -19 -40 -37 -25 -28 23 -13 52 25 46 9 -1 14 -10 12 -21z m-152 -41
c0 -17 -21 -18 -44 -1 -10 8 -15 19 -11 29 6 16 9 16 31 1 13 -8 24 -22 24
-29z m67 34 c6 -7 12 -22 15 -33 4 -15 0 -21 -13 -21 -11 0 -19 7 -19 18 0 9
-4 20 -10 23 -5 3 -10 10 -10 16 0 13 26 11 37 -3z m-2861 -33 c-36 -55 -1
-62 59 -10 47 41 92 46 120 15 25 -27 10 -73 -24 -78 -21 -3 -22 -1 -16 27 9
43 -16 41 -66 -4 -60 -53 -129 -40 -129 25 0 32 17 50 48 50 24 0 24 -1 8 -25z
m2564 -14 c0 -12 -39 -21 -45 -11 -3 5 5 11 17 13 13 2 24 5 26 6 1 0 2 -3 2
-8z m-80 -14 c0 -7 -13 -23 -29 -35 l-29 -21 -23 25 -22 24 36 0 c20 0 39 5
42 10 9 14 25 12 25 -3z m-116 -22 c-5 -13 -9 -13 -23 -3 -9 7 -18 14 -20 15
-2 2 8 3 22 3 20 0 25 -4 21 -15z m-123 -15 c28 -16 23 -30 -11 -30 -23 0 -30
4 -30 20 0 22 12 25 41 10z m-257 -29 c3 -4 3 -11 0 -14 -8 -8 -34 3 -34 14 0
11 27 12 34 0z m92 -16 c-1 -28 -30 -35 -40 -9 -8 21 1 34 24 34 13 0 17 -7
16 -25z m54 9 c0 -14 -3 -14 -15 -4 -8 7 -15 14 -15 16 0 2 7 4 15 4 8 0 15
-7 15 -16z m-2037 -23 c30 -12 39 -43 20 -70 -10 -15 -25 -21 -54 -21 -37 0
-39 2 -39 30 0 19 -5 30 -14 30 -19 0 -29 -17 -16 -25 17 -11 11 -35 -9 -35
-46 0 -54 65 -11 87 30 15 89 17 123 4z m1710 -18 c8 -42 -13 -59 -52 -43 -34
14 -41 30 -13 30 9 0 23 9 30 20 17 28 29 25 35 -7z m1034 -69 c-3 -3 -12 -4
-19 -1 -8 3 -5 6 6 6 11 1 17 -2 13 -5z m-61 -50 c-11 -8 -31 -14 -44 -14
l-25 0 29 28 c25 24 31 26 44 14 13 -12 13 -15 -4 -28z m-76 20 c0 -3 -7 -12
-15 -20 -12 -13 -15 -13 -15 -1 0 7 3 17 7 20 8 8 23 9 23 1z m-2596 -27 c12
-9 17 -23 14 -42 -6 -55 -88 -60 -96 -6 -3 15 -10 21 -29 21 -25 0 -25 -1 -9
-19 17 -19 15 -41 -4 -41 -15 0 -40 31 -40 50 0 34 28 50 89 50 31 0 65 -6 75
-13z m2474 1 c8 -8 15 -8 27 2 13 10 15 9 15 -8 0 -11 -7 -22 -15 -26 -8 -3
-15 -1 -15 4 0 5 -10 10 -22 12 -12 2 -23 9 -26 16 -5 15 20 16 36 0z m-268
-49 c0 -6 -4 -7 -10 -4 -5 3 -10 11 -10 16 0 6 5 7 10 4 6 -3 10 -11 10 -16z
m168 9 c16 -16 15 -29 -2 -22 -16 6 -30 34 -18 34 5 0 13 -5 20 -12z m56 -19
c-3 -5 -10 -7 -15 -3 -5 3 -7 10 -3 15 3 5 10 7 15 3 5 -3 7 -10 3 -15z m-344
-29 c0 -11 -4 -20 -10 -20 -5 0 -10 9 -10 20 0 11 5 20 10 20 6 0 10 -9 10
-20z m-161 1 c9 -6 10 -11 2 -15 -13 -8 -31 1 -31 15 0 11 11 11 29 0z m68
-25 c-4 -9 -13 -16 -22 -16 -18 0 -19 4 -3 30 14 22 34 10 25 -14z m-237 -5
c0 -18 -18 -21 -30 -6 -10 13 -9 15 9 15 11 0 21 -4 21 -9z m-1766 -11 c14 -5
26 -17 26 -26 0 -8 14 -21 30 -27 55 -21 27 -32 -87 -35 l-110 -3 -6 31 c-8
37 -1 57 21 63 32 9 101 7 126 -3z m1644 -31 c2 -17 -3 -29 -12 -32 -9 -4 -16
-1 -16 6 0 7 -3 23 -7 36 -5 19 -2 22 13 19 12 -2 20 -13 22 -29z m72 17 c0
-18 -15 -36 -31 -36 -22 0 -24 11 -7 28 11 11 38 17 38 8z m735 -138 c-1 -13
-9 -24 -18 -26 -22 -4 -21 3 0 28 21 24 20 25 18 -2z m52 0 c-3 -8 -6 -5 -6 6
-1 11 2 17 5 13 3 -3 4 -12 1 -19z m-2419 -35 c2 -33 0 -43 -12 -43 -8 0 -16
10 -18 23 -4 27 -47 37 -60 13 -11 -20 -34 -21 -42 -1 -3 9 -18 15 -35 15 -23
0 -30 -5 -33 -22 -4 -33 -32 -29 -36 5 -7 56 -2 58 120 55 l113 -3 3 -42z
m2262 28 c0 -22 -16 -36 -24 -22 -8 12 3 41 15 41 5 0 9 -9 9 -19z m-141 -42
c-13 -10 -26 -14 -27 -8 -6 16 18 38 35 32 13 -5 11 -9 -8 -24z m-166 -27 c-3
-14 -12 -17 -39 -14 -21 3 -34 10 -34 18 0 10 7 13 24 8 13 -3 27 -1 31 5 10
17 24 4 18 -17z m107 7 c0 -6 -4 -7 -10 -4 -5 3 -10 11 -10 16 0 6 5 7 10 4 6
-3 10 -11 10 -16z m-215 1 c11 -17 -5 -32 -21 -19 -7 6 -11 15 -8 20 7 12 21
11 29 -1z m-305 -30 c0 -5 -12 -10 -26 -10 -14 0 -23 4 -19 10 3 6 15 10 26
10 10 0 19 -4 19 -10z m250 6 c0 -2 -11 -11 -25 -20 -19 -13 -30 -14 -45 -6
-16 9 -20 8 -20 -5 0 -18 -12 -19 -28 -3 -9 9 -6 14 11 24 20 11 107 19 107
10z m-1954 -42 c13 -3 38 -1 55 5 38 13 52 6 37 -19 -9 -14 -9 -22 1 -34 11
-13 11 -16 -2 -16 -9 0 -28 5 -42 10 -19 7 -39 7 -66 -1 -40 -13 -65 -5 -39
11 12 8 13 13 3 29 -13 21 -6 34 15 26 8 -3 25 -8 38 -11z m1666 -31 c-10 -28
-10 -28 -11 12 -1 28 2 36 10 28 8 -8 8 -19 1 -40z m998 -43 c0 -11 -4 -20
-10 -20 -5 0 -10 9 -10 20 0 11 5 20 10 20 6 0 10 -9 10 -20z m80 1 c0 -12
-20 -25 -27 -18 -7 7 6 27 18 27 5 0 9 -4 9 -9z m-262 -51 c-14 -22 -24 -25
-33 -10 -9 15 4 30 26 30 17 0 18 -3 7 -20z m-71 -12 c-3 -8 -6 -5 -6 6 -1 11
2 17 5 13 3 -3 4 -12 1 -19z m-91 -4 c-3 -9 -6 -20 -6 -25 0 -5 -9 -9 -20 -9
-25 0 -26 25 -2 39 25 15 35 13 28 -5z m54 1 c10 -13 9 -15 -9 -15 -12 0 -21
6 -21 15 0 8 4 15 9 15 5 0 14 -7 21 -15z m-156 -23 c5 -9 -53 -37 -61 -29 -3
4 -3 13 0 22 7 15 52 21 61 7z m-189 -22 c17 -4 23 -8 14 -9 -9 0 -22 -8 -29
-16 -16 -20 -27 -19 -33 3 -4 14 -6 14 -12 -5 -4 -13 -11 -23 -16 -23 -11 0
-11 3 1 34 10 27 22 29 75 16z m95 -5 c-7 -8 -21 -15 -32 -15 -17 0 -18 3 -8
15 7 8 21 15 32 15 17 0 18 -3 8 -15z m-265 -55 c-3 -5 -10 -10 -16 -10 -5 0
-9 5 -9 10 0 6 7 10 16 10 8 0 12 -4 9 -10z"/>
<path d="M1820 12014 l0 -186 114 4 c110 3 116 4 144 31 77 74 63 266 -22 318
-25 15 -51 19 -133 19 l-103 0 0 -186z"/>
<path d="M2909 11861 l-55 -211 108 0 c71 0 108 4 108 11 0 8 -91 364 -103
403 -2 5 -28 -86 -58 -203z"/>
<path d="M6680 12025 l0 -175 99 0 c86 0 102 3 126 22 39 31 55 77 55 161 0
61 -4 80 -23 108 -33 49 -60 59 -164 59 l-93 0 0 -175z"/>
<path d="M7746 11867 c-27 -106 -51 -198 -54 -204 -3 -10 23 -13 108 -13 101
0 111 2 106 18 -3 9 -26 98 -52 197 -25 99 -49 183 -53 187 -3 4 -28 -79 -55
-185z"/>
<path d="M1610 10775 l0 -175 33 0 c71 0 97 49 97 180 0 133 -21 170 -94 170
l-36 0 0 -175z"/>
<path d="M2797 10870 c-9 -23 -37 -136 -37 -149 0 -6 19 -11 45 -11 44 0 45 1
39 28 -23 90 -42 145 -47 132z"/>
<path d="M4167 10870 c-9 -23 -37 -136 -37 -149 0 -6 19 -11 45 -11 44 0 45 1
39 28 -23 90 -42 145 -47 132z"/>
<path d="M4830 10870 l0 -80 49 0 c59 0 81 22 81 80 0 58 -22 80 -81 80 l-49
0 0 -80z"/>
<path d="M5310 10875 l0 -75 38 0 c56 0 77 20 77 73 0 59 -17 77 -71 77 l-44
0 0 -75z"/>
<path d="M5791 10934 c-28 -35 -34 -77 -29 -188 5 -127 29 -161 106 -147 35 6
53 42 59 124 8 107 -4 184 -32 213 -33 33 -77 32 -104 -2z"/>
<path d="M6280 10775 c0 -175 0 -175 23 -175 81 1 97 31 97 183 0 100 -3 117
-21 141 -16 20 -29 26 -60 26 l-39 0 0 -175z"/>
<path d="M8475 10943 c-28 -28 -35 -60 -35 -166 0 -149 33 -201 112 -175 41
14 50 51 46 193 -3 119 -4 128 -27 146 -29 23 -74 25 -96 2z"/>
<path d="M2872 9581 c-20 -12 -34 -89 -27 -144 12 -82 75 -101 95 -29 29 106
-11 209 -68 173z"/>
<path d="M5777 9572 c-26 -29 -24 -165 3 -192 24 -24 30 -24 56 -6 16 12 19
27 19 101 0 74 -3 89 -19 101 -26 19 -40 18 -59 -4z"/>
<path d="M9245 9576 c-13 -9 -20 -30 -23 -69 -9 -113 21 -167 74 -132 22 14
24 22 24 99 0 68 -3 86 -18 99 -22 21 -33 21 -57 3z"/>
<path d="M1896 9494 c-4 -19 -10 -42 -13 -50 -4 -10 3 -14 27 -14 27 0 31 3
25 18 -3 9 -9 29 -12 45 -8 41 -20 41 -27 1z"/>
<path d="M3160 9535 c0 -43 1 -45 28 -45 33 0 52 16 52 45 0 29 -19 45 -52 45
-27 0 -28 -2 -28 -45z"/>
<path d="M3450 9535 c0 -43 1 -45 28 -45 33 0 52 16 52 45 0 29 -19 45 -52 45
-27 0 -28 -2 -28 -45z"/>
<path d="M3777 9514 c-3 -18 -9 -43 -13 -58 -5 -23 -3 -26 20 -26 30 0 32 12
12 75 l-12 40 -7 -31z"/>
<path d="M6080 9534 c0 -43 1 -45 26 -42 34 4 49 27 40 61 -5 22 -12 27 -36
27 -29 0 -30 -2 -30 -46z"/>
<path d="M6510 9534 c0 -43 1 -45 26 -42 34 4 49 27 40 61 -5 22 -12 27 -36
27 -29 0 -30 -2 -30 -46z"/>
<path d="M7370 9475 l0 -105 25 0 c41 0 58 38 53 121 -4 74 -13 89 -55 89 -22
0 -23 -3 -23 -105z"/>
<path d="M6500 8902 c-27 -22 -30 -76 -7 -100 18 -18 62 -19 82 -2 24 20 19
86 -7 104 -29 21 -41 20 -68 -2z"/>
<path d="M7730 8902 c-27 -22 -30 -76 -7 -100 18 -18 62 -19 82 -2 24 20 19
86 -7 104 -29 21 -41 20 -68 -2z"/>
<path d="M2670 8900 c-39 -39 -16 -112 36 -112 33 0 64 33 64 68 0 29 -33 64
-60 64 -11 0 -29 -9 -40 -20z"/>
<path d="M3396 8904 c-27 -26 -18 -34 39 -34 51 0 55 1 46 19 -18 33 -60 41
-85 15z"/>
<path d="M3650 8902 c-27 -22 -30 -76 -7 -100 18 -18 62 -19 82 -2 24 20 19
86 -7 104 -29 21 -41 20 -68 -2z"/>
<path d="M4806 8904 c-27 -26 -18 -34 39 -34 51 0 55 1 46 19 -18 33 -60 41
-85 15z"/>
<path d="M5620 8902 c-27 -22 -30 -76 -7 -100 18 -18 62 -19 82 -2 24 20 19
86 -7 104 -29 21 -41 20 -68 -2z"/>
<path d="M6232 8904 c-22 -15 -30 -66 -14 -90 24 -36 81 -34 101 5 17 30 13
50 -14 76 -28 29 -42 31 -73 9z"/>
<path d="M6761 8894 c-25 -32 -26 -52 -5 -82 18 -26 65 -30 88 -6 35 35 5 114
-43 114 -11 0 -29 -12 -40 -26z"/>
<path d="M7042 8900 c-43 -40 -18 -110 40 -110 53 0 77 71 38 110 -26 26 -50
25 -78 0z"/>
<path d="M7460 8900 c-41 -41 -14 -110 43 -110 52 0 75 72 35 110 -28 25 -52
26 -78 0z"/>
<path d="M7991 8894 c-25 -32 -26 -52 -5 -82 18 -26 65 -30 88 -6 35 35 5 114
-43 114 -11 0 -29 -12 -40 -26z"/>
<path d="M3310 8442 c-27 -22 -30 -76 -7 -100 18 -18 62 -19 82 -2 24 20 19
86 -7 104 -29 21 -41 20 -68 -2z"/>
<path d="M5301 8434 c-25 -32 -26 -52 -5 -82 18 -26 65 -30 88 -6 35 35 5 114
-43 114 -11 0 -29 -12 -40 -26z"/>
<path d="M5842 8444 c-22 -15 -30 -66 -14 -90 24 -36 81 -34 101 5 17 30 13
50 -14 76 -28 29 -42 31 -73 9z"/>
<path d="M6921 8434 c-25 -32 -26 -52 -5 -82 18 -26 65 -30 88 -6 35 35 5 114
-43 114 -11 0 -29 -12 -40 -26z"/>
<path d="M2400 8442 c-27 -22 -30 -76 -7 -100 18 -18 62 -19 82 -2 24 20 19
86 -7 104 -29 21 -41 20 -68 -2z"/>
<path d="M3042 8444 c-22 -15 -30 -66 -14 -90 24 -36 81 -34 101 5 17 30 13
50 -14 76 -28 29 -42 31 -73 9z"/>
<path d="M3570 8440 c-41 -41 -14 -110 43 -110 52 0 75 72 35 110 -28 25 -52
26 -78 0z"/>
<path d="M4232 8453 c-7 -2 -17 -13 -22 -24 -10 -18 -7 -19 45 -19 42 0 55 4
55 15 0 25 -45 41 -78 28z"/>
<path d="M4716 8444 c-27 -26 -18 -34 39 -34 51 0 55 1 46 19 -18 33 -60 41
-85 15z"/>
<path d="M5570 8440 c-41 -41 -14 -110 43 -110 52 0 75 72 35 110 -28 25 -52
26 -78 0z"/>
<path d="M6252 8444 c-26 -18 -31 -84 -7 -104 20 -17 64 -16 82 2 23 24 20 78
-7 100 -27 22 -39 23 -68 2z"/>
<path d="M6672 8444 c-25 -17 -30 -69 -9 -98 17 -23 63 -24 85 -3 23 24 20 77
-7 99 -28 22 -40 23 -69 2z"/>
<path d="M8210 8442 c-27 -22 -30 -76 -7 -100 18 -18 62 -19 82 -2 24 20 19
86 -7 104 -29 21 -41 20 -68 -2z"/>
<path d="M4898 6923 c6 -2 18 -2 25 0 6 3 1 5 -13 5 -14 0 -19 -2 -12 -5z"/>
<path d="M3903 5978 l-18 -33 -3 28 c-2 15 -8 27 -13 27 -19 0 -22 -34 -6 -62
15 -27 15 -31 1 -53 -11 -17 -13 -29 -6 -41 8 -15 11 -14 25 7 9 12 19 20 23
16 8 -8 -21 -70 -41 -87 -8 -7 -15 -18 -15 -26 0 -24 20 -26 40 -2 16 19 19
20 20 6 0 -10 -4 -18 -10 -18 -5 0 -10 -4 -10 -10 0 -14 33 -13 48 2 17 17 15
43 -3 58 -14 12 -14 15 0 36 20 30 19 40 -5 74 -13 18 -16 31 -10 35 5 3 10
15 10 26 0 10 5 19 10 19 6 0 10 -9 10 -21 0 -12 5 -19 13 -16 11 4 12 24 2
55 -8 24 -44 12 -62 -20z"/>
<path d="M3871 5686 c-19 -20 -22 -29 -14 -53 9 -25 15 -28 61 -31 57 -3 64 6
40 51 -36 63 -53 69 -87 33z m54 -25 c3 -5 1 -13 -5 -16 -15 -9 -43 3 -35 15
8 13 32 13 40 1z"/>
<path d="M3855 5560 c-3 -11 -3 -30 1 -42 7 -22 8 -22 19 6 12 29 13 29 24 8
15 -27 31 -28 31 -2 0 11 5 20 10 20 6 0 10 -9 10 -19 0 -11 5 -23 11 -26 7
-5 9 6 7 31 l-3 39 -52 3 c-44 3 -52 0 -58 -18z"/>
<path d="M3865 5442 l0 -38 40 2 c22 2 41 3 43 3 1 1 -2 9 -7 19 -7 13 -6 23
1 30 18 18 3 25 -21 10 -16 -10 -23 -10 -33 0 -19 19 -23 15 -23 -26z"/>
<path d="M6277 5381 c-86 -7 -101 -17 -92 -66 2 -16 5 -125 6 -242 2 -243 -7
-225 105 -211 115 14 116 14 112 51 l-3 32 -65 0 -65 0 -3 72 c-3 79 -6 75 63
85 16 3 20 11 20 38 0 32 -3 35 -30 36 -56 1 -55 0 -55 69 l0 65 49 0 c49 0
81 17 81 44 0 16 -21 36 -34 34 -6 -1 -46 -4 -89 -7z"/>
<path d="M6023 5350 c-21 -8 -23 -16 -23 -78 l0 -70 -43 5 c-65 8 -69 -3 -78
-185 -7 -135 -6 -160 7 -180 14 -22 21 -24 63 -17 25 3 60 6 76 6 58 -1 58 -1
56 211 -3 213 -11 310 -26 314 -5 1 -20 -1 -32 -6z m-29 -206 c13 -12 16 -38
16 -122 0 -114 -6 -136 -36 -130 -17 3 -19 15 -22 122 -2 78 1 123 9 132 14
17 14 17 33 -2z"/>
<path d="M3920 5328 c-6 -7 -17 -22 -25 -33 -14 -19 -14 -19 -15 8 0 15 -5 27
-10 27 -20 0 -23 -34 -6 -63 15 -27 15 -32 1 -53 -8 -13 -12 -30 -9 -38 8 -21
12 -20 35 7 18 22 18 22 19 1 0 -12 -12 -33 -26 -47 -28 -28 -29 -26 21 -42
24 -7 17 -23 -12 -27 -35 -4 -43 -28 -9 -28 34 0 34 -26 1 -34 -26 -7 -34 -31
-12 -39 9 -4 8 -8 -3 -16 -13 -9 -13 -12 2 -27 15 -16 22 -16 58 -4 42 14 53
30 21 30 -28 0 -36 18 -18 38 18 20 21 106 4 133 -9 15 -9 24 1 39 17 27 15
40 -8 65 -17 18 -18 25 -7 48 15 33 23 34 31 5 5 -18 8 -20 15 -9 15 23 -5 70
-31 71 -4 0 -12 -6 -18 -12z"/>
<path d="M6596 5268 c-3 -7 -7 -25 -10 -40 -8 -37 -20 -35 -46 7 -35 57 -92
40 -66 -20 56 -125 55 -117 21 -219 -30 -90 -32 -116 -7 -116 26 0 53 32 61
71 10 48 27 46 50 -5 14 -32 26 -46 39 -46 42 0 43 22 5 113 l-36 86 27 79
c14 44 26 84 26 91 0 15 -60 14 -64 -1z"/>
<path d="M5005 5244 c-16 -9 -35 -23 -43 -30 -17 -18 -42 -78 -42 -104 0 -38
38 -95 100 -149 34 -29 69 -68 77 -87 15 -30 15 -35 0 -57 -9 -13 -27 -27 -42
-29 -20 -4 -31 2 -53 30 -24 29 -33 34 -55 28 -40 -10 -37 -54 7 -100 28 -30
40 -36 76 -36 51 0 110 31 133 70 23 39 22 115 -3 154 -10 17 -48 57 -83 88
-72 63 -89 104 -62 145 20 30 49 29 73 -2 14 -17 30 -25 51 -25 26 0 31 4 31
25 0 67 -100 115 -165 79z"/>
<path d="M5643 5175 c-58 -25 -73 -64 -73 -195 0 -127 12 -162 64 -189 46 -25
122 11 146 70 7 16 9 40 6 54 -5 21 -12 26 -34 23 -22 -2 -28 -9 -30 -33 -10
-86 -82 -70 -82 18 0 43 18 58 78 65 60 6 72 16 72 61 0 117 -57 166 -147 126z
m73 -80 c9 -38 -2 -55 -36 -55 -34 0 -45 17 -36 55 5 20 13 25 36 25 23 0 31
-5 36 -25z"/>
<path d="M5341 5142 c-66 -33 -75 -56 -74 -195 1 -147 13 -182 67 -193 81 -15
139 26 140 98 1 40 -1 43 -27 46 -28 3 -30 0 -41 -50 -5 -21 -12 -28 -30 -28
-28 0 -36 16 -36 75 0 46 9 55 60 55 16 0 40 4 54 10 23 8 26 15 26 54 0 76
-10 107 -44 127 -38 23 -51 23 -95 1z m66 -80 c7 -31 -7 -56 -35 -60 -29 -4
-47 30 -31 61 23 43 55 43 66 -1z"/>
<path d="M3907 4901 c-52 -8 -51 -25 2 -29 58 -4 77 3 61 23 -7 8 -15 14 -19
14 -3 -1 -23 -5 -44 -8z"/>
<path d="M3873 4853 c-10 -3 -10 -10 -1 -26 8 -16 8 -22 -1 -25 -6 -2 -11 -21
-11 -43 0 -37 2 -39 31 -39 35 0 58 23 59 58 0 28 -16 29 -30 1 -13 -24 -22
-19 -26 16 -2 23 17 39 42 34 22 -4 34 2 34 16 0 11 -11 15 -42 14 -24 0 -49
-3 -55 -6z"/>
<path d="M3856 4695 c-8 -21 10 -55 29 -55 9 0 15 9 15 22 0 20 1 20 18 5 25
-23 32 -21 32 7 0 28 -26 42 -46 25 -11 -9 -17 -9 -28 0 -11 9 -15 8 -20 -4z"/>
<path d="M3890 2040 c0 -5 4 -10 9 -10 6 0 13 5 16 10 3 6 -1 10 -9 10 -9 0
-16 -4 -16 -10z"/>
<path d="M3823 1908 c-2 -5 17 -8 43 -8 26 0 44 3 40 7 -10 10 -77 10 -83 1z"/>
</g>
</svg>
